<svg width="64" height="64" viewBox="0 0 64 64" fill="none" xmlns="http://www.w3.org/2000/svg">
<path d="M53.4286 42.3571V21.3469H49.1429V19.5714H47V17.5H38.4286V19.5714H36.2857V21.3469H27.7143V19.5714H25.5714V17.5H17V19.5714H14.8571V21.3469H10.5714V42.3571M53.4286 42.3571H51.2857V44.4286H12.7143V42.3571H10.5714M53.4286 42.3571V32M53.4286 42.3571H57.7143V40.2857H59.8571V34.0714H57.7143V32H53.4286M10.5714 42.3571V32M10.5714 42.3571H6.28571V40.2857H4.14286V34.0714H6.28571V32H10.5714M36.2857 38.2143H34.1429V39.25H35.5714V40.2857H36.2857V38.2143ZM36.2857 38.2143V36.1429H34.1429V25.7857H49.1429V38.2143H36.2857ZM27.7143 38.2143H29.8571V39.25H28.4286V40.2857H27.7143V38.2143ZM27.7143 38.2143V36.1429H29.8571V25.7857H14.8571V38.2143H27.7143ZM25.5714 54.7857H38.4286M53.4286 32H55.5714V34.0714H53.4286V32ZM10.5714 32H8.42857V34.0714H10.5714V32ZM28.7857 26.8214H35.2143M5.21429 33.0357H15.9286M48.0714 33.0357H58.7857M8.42857 13.3571H10.5714V11.2857H17V9.21429H23.4286V7.14286H25.5714V3H29.8571V5.07143H38.4286V7.14286H40.5714V9.21429H47V11.2857H53.4286V13.3571H55.5714V19.5714H57.7143V44.4286H55.5714V46.5H53.4286V56.8571H55.5714V58.9286H62V61H2V58.9286H8.42857L8.42857 56.8571H10.5714L10.5714 46.5H8.42857V44.4286H6.28571V19.5714H8.42857V13.3571ZM21.2857 38.2143H19.1429V50.6429H21.2857V56.8571H23.4286V58.9286H40.5714V56.8571H42.7143V50.6429H44.8571V38.2143H42.7143V36.1429H38.4286V34.0714H34.1429V32H29.8571V34.0714H25.5714V36.1429H21.2857V38.2143Z" stroke="url(#paint0_linear_5_89)" stroke-width="1.5"/>
<defs>
<linearGradient id="paint0_linear_5_89" x1="32" y1="3" x2="32" y2="61" gradientUnits="userSpaceOnUse">
<stop offset="0.302885" stop-color="#D9C6BA"/>
<stop offset="1" stop-color="#8B2661"/>
</linearGradient>
</defs>
</svg>
