<svg width="64" height="64" viewBox="0 0 64 64" fill="none" xmlns="http://www.w3.org/2000/svg">
<path d="M21 9H22V8H25V7H28V6H29V4H31V5H35V6H36V7H39V8H42V9H43V12H44V24H43V25H42V26V27V28V29V30H43V31H46V32H18V31H21L21 30H22V29V28V27L22 26V25H21V24H20V12H21V9Z" fill="#2D2308"/>
<path d="M24 12.8571V12H25V11H29V12H30V12.8571H34V12H35V11H39V12H40V12.8571H42V23H41V24H23V23H22V12.8571H24Z" fill="#B29061"/>
<path d="M27 21V20H29V19H31V18H33V19H35V20H37V21H38V27H37V30H36V31H28V30H27V27H26V21H27Z" fill="#CCA773"/>
<path d="M33 21H34V22H33.6667V21.5H33V21Z" fill="#241E1E"/>
<path d="M31 21H30V22H30.3333V21.5H31V21Z" fill="#241E1E"/>
<path d="M29 29H35" stroke="black" stroke-width="0.5"/>
<path d="M26 16H29V19H26V16Z" fill="#D9D9D9"/>
<path d="M27 18H28V19H27V18Z" fill="#43340C"/>
<path d="M35 16H38V19H35V16Z" fill="#D9D9D9"/>
<path d="M36 18H37V19H36V18Z" fill="#43340C"/>
<path d="M42 18H44V19H45V22H44V23H42V18Z" fill="#CCA773"/>
<path d="M42 20H43V21H42V20Z" fill="#43340C"/>
<path d="M20 19V18H22V23H20V22H19V19H20Z" fill="#CCA773"/>
<path d="M21 20H22V21H21V20Z" fill="#43340C"/>
<path d="M30.5 15.5V19.5H29.5V20.5H24.5V15.5H30.5Z" fill="#C0DFF6" fill-opacity="0.5" stroke="black"/>
<path d="M33.5 15.5V19.5H34.5V20.5H39.5V15.5H33.5Z" fill="#C0DFF6" fill-opacity="0.5" stroke="black"/>
<path d="M30.5 15.5H33.5" stroke="black"/>
<path d="M19.5 18.5H24.5M39.5 18.5H44.5" stroke="black"/>
<path d="M5 33V32H59V33H60V42H59V50H58V57H57V59H7V57H6V50H5V42H4V33H5Z" fill="#11132B"/>
<path d="M34 48.75V46.2143H33.5V46H33.25V45.75H32.25V46H32V46.2143H31V46H30.75V45.75H29.75V46H29.5V46.2143H29V48.75M34 48.75H33.75V49H29.25V48.75H29M34 48.75V47.5H34.5V47.75H34.75V48.5H34.5V48.75H34ZM29 48.75V47.5H28.5V47.75H28.25V48.125V48.5H28.5V48.75H29ZM32.25 47.75V48H32.75V48.25H33V49.75H32.75V50.5H32.5V50.75H30.5V50.5H30.25V49.75H30V48.25H30.25V48H30.75V47.75M32.25 47.75H31.75V47.5H31.25V47.75H30.75M32.25 47.75H33V47H32.25V47.75ZM30.75 47.75V47H30V47.75H30.75ZM31.125 46.875H31.875M28.375 47.625H29.625M33.375 47.625H34.625M28.75 45.25H29V45H29.75V44.75H30.5V44.5H30.75V44H31.25V44.25H32.25V44.5H32.5V44.75H33.25V45H34V45.25H34.25V46H34.5V49H34.25V49.25H34V49.5H33.75V50.25H34V50.5H34.25V50.75H35V51H28V50.75H28.75L28.75 50.5H29V50.25H29.25V49.5H29V49.25H28.75V49H28.5V46H28.75V45.25ZM32 48.5H32.25V48.75H32.1667V48.625H32V48.5ZM31 48.5H30.75V48.75H30.8333V48.625H31V48.5ZM30.25 47.5H30.5V47.75H30.25V47.5ZM32.5 47.5H32.75V47.75H32.5V47.5ZM34 48H34.25V48.25H34V48ZM28.75 48H29V48.25H28.75V48ZM29.5 46.75H31.25V48H31V48.25H29.5V46.75ZM33.5 46.75H31.75V48H32V48.25H33.5V46.75Z" stroke="white" stroke-opacity="0.47" stroke-width="0.2"/>
</svg>
